<svg xmlns="http://www.w3.org/2000/svg" viewBox="0 0 602 540"><path fill="#ececec" d="M254.5 33.637c-7.817 1.647-12.574 3.434-11.926 4.482.236.382-.359.506-1.323.277-2.089-.499-9.842 3.826-9.54 5.323.116.575-.548.986-1.476.913-.928-.072-1.698.393-1.711 1.035-.013.641-.434 1.541-.934 2-.529.484-.609.309-.191-.417.395-.687.311-1.25-.188-1.25-1.615 0-12.359 11.952-11.7 13.017.351.568.042.909-.687.758-.728-.151-1.264.495-1.192 1.436.073.941-.377 1.616-1 1.5-.622-.116-1.072.559-1 1.5.073.941-.377 1.616-1 1.5-.622-.116-1.099.779-1.058 1.989.041 1.21-.25 2.001-.645 1.756-1.016-.628-2.072 2.504-1.278 3.789.362.585.191.775-.38.422C205.194 72.384 201 88.73 201 98.108c0 9.462 4.296 26.445 6.367 25.165.518-.32.646-.103.284.482-.794 1.285.262 4.417 1.278 3.789.395-.245.686.538.645 1.739-.041 1.2.451 2.191 1.093 2.2.641.009 1.541.427 2 .927.492.538.268.583-.547.111-.949-.55-1.222-.366-.875.59.278.764.958 1.294 1.512 1.178.554-.116.948.559.875 1.5-.072.941.464 1.587 1.192 1.436.729-.151 1.04.186.692.749-.877 1.419 9.427 12.103 11.365 11.785.866-.143 1.584.266 1.597.908.012.641.36 1.504.772 1.916 1.934 1.934-.654 2.275-20.5 2.699-11.687.25-22.15.705-23.25 1.01-1.1.305-2.364.589-2.809.631-.445.043-.534.522-.198 1.066.342.553-.032.741-.851.427-1.859-.713-7.902 2.354-7.123 3.615.333.539-.154.663-1.131.288-1.157-.444-1.483-.281-1 .5.445.72.204.962-.639.638-1.702-.653-10.983 8.355-10.093 9.795.372.603.179.764-.451.375-1.368-.846-3.558 2.992-2.597 4.548.419.677.256.859-.403.452-1.388-.858-3.554 3.022-2.793 5.003.311.811.164 1.226-.326.923-.49-.303-1.403.911-2.028 2.698-1.461 4.177-2.697 22.262-1.469 21.503.51-.316.767 1.263.584 3.591-.18 2.285.567 12.03 1.659 21.655 1.973 17.375 2.186 19.655 2.203 23.5.004 1.1.663 7.175 1.463 13.5.799 6.325 1.52 13.3 1.601 15.5.082 2.2.949 11.425 1.929 20.5.979 9.075 2.289 22.125 2.909 29a21950.3 21950.3 0 0 0 1.631 18c.57 6.247 3.595 35.947 6.009 59 .893 8.525 1.81 18.65 2.037 22.5.227 3.85.641 8.012.919 9.25l.505 2.25h93.512c81.944 0 93.584-.184 94.085-1.491.314-.82.638-6.621.718-12.892.081-6.271.424-11.236.763-11.034.484.29 2.144-12.298 2.846-21.583.574-7.597 1.081-12.959 2.034-21.5.613-5.5 1.151-11.125 1.195-12.5.044-1.375.684-8.038 1.423-14.808.738-6.769 1.615-15.769 1.947-20 .333-4.23 1.051-11.517 1.596-16.192.546-4.675 1.243-12.884 1.551-18.242l.559-9.743-4.81-4.958c-2.645-2.726-5.109-4.772-5.475-4.546-.366.226-2.199-1.259-4.074-3.3L359.5 270.5l3.75 3.446c2.063 1.896 3.75 2.908 3.75 2.25 0-.658-.396-1.196-.88-1.196s-5.097-4.765-10.25-10.588c-12.636-14.279-18.162-20.195-17.288-18.507.482.931.332 1.16-.444.68-.644-.398-.961-1.063-.704-1.478.745-1.206-8.489-11.191-9.672-10.46-.624.386-.781.192-.376-.463.383-.619.002-2.466-.845-4.105-2.131-4.121-1.892-9.749.641-15.079 1.176-2.475 2.055-4.871 1.953-5.324-.101-.454.216-.577.707-.274.49.303 1.738-.443 2.774-1.658 1.861-2.182 1.859-2.191-.116-.727-1.849 1.371-1.897 1.352-.637-.256.75-.956 1.757-1.496 2.238-1.199 1.049.649 11.059-8.495 10.424-9.521-.243-.394 1.451-2.477 3.765-4.628l4.207-3.913-3.444 3.75c-7.525 8.191-.699 3.137 8.079-5.982 5.152-5.353 8.705-8.898 7.895-7.879-1.024 1.288-.296 1.054 2.389-.768 3.516-2.385 5.629-3.111 7.908-2.715.454.079.535-.325.181-.898-.354-.572-1.011-.813-1.461-.535-.45.278-.756-.277-.681-1.234.076-.962-.455-1.616-1.187-1.464-.729.151-1.071-.136-.761-.637.726-1.174-2.034-3.491-3.258-2.735-.512.316-1.544-.208-2.294-1.164-1.262-1.61-1.215-1.628.637-.239 1.867 1.4 1.906 1.38.59-.296-.776-.987-2.037-1.555-2.802-1.261-.766.294-1.127.105-.803-.419.753-1.218-7.879-5.618-13.04-6.647-2.17-.433-4.282-.863-4.695-.957-.413-.093-9.75-.226-20.75-.295-20.529-.128-23.122-.694-17.961-3.917 1.121-.7 1.816-1.633 1.545-2.073-.272-.439 1.848-3.012 4.711-5.717l5.205-4.918-4.962 5.25c-2.73 2.887-4.652 5.25-4.271 5.25.643 0 6.14-5.685 11.458-11.851 1.257-1.457 2.063-3.235 1.792-3.951-.302-.796-.044-1.024.664-.586.781.483.944.157.5-1-.372-.969-.25-1.464.28-1.136 1.262.78 3.338-3.254 2.627-5.106-.311-.811-.183-1.238.284-.949 2.574 1.591 6.128-13.867 6.128-26.652 0-13.665-7.575-36.881-11.757-36.031-.644.131-.941-.363-.659-1.097.751-1.956-11.807-14.91-14.707-15.17-1.307-.117-2.269-.708-2.137-1.312.32-1.466-3.48-3.438-4.915-2.551-.631.39-.861.259-.518-.296.896-1.449-10.887-6.625-13.811-6.067-1.339.257-2.243.154-2.007-.227 1.684-2.725-17.187-3.656-27.989-1.381m2.313 1.046c.721.289 1.584.253 1.916-.079.332-.332-.258-.568-1.312-.525-1.165.048-1.402.285-.604.604m20 0c.721.289 1.584.253 1.916-.079.332-.332-.258-.568-1.312-.525-1.165.048-1.402.285-.604.604M221 52.5c-2.429 2.475-4.191 4.5-3.916 4.5.275 0 2.487-2.025 4.916-4.5 2.429-2.475 4.191-4.5 3.916-4.5-.275 0-2.487 2.025-4.916 4.5m-17.921 36.083c.048 1.165.285 1.402.604.605.289-.722.253-1.585-.079-1.917-.332-.332-.568.258-.525 1.312m0 20c.048 1.165.285 1.402.604.605.289-.722.253-1.585-.079-1.917-.332-.332-.568.258-.525 1.312m17.879 35.667c4.144 4.415 5.042 5.209 5.042 4.458 0-.16-2.137-2.298-4.75-4.75l-4.75-4.458 4.458 4.75m136.495 39-3.953 4.25 4.25-3.953c3.952-3.676 4.71-4.547 3.953-4.547-.163 0-2.076 1.912-4.25 4.25m9.175 12.536c-4.47 4.283-12.515 11.751-17.878 16.597-5.549 5.015-9.75 9.597-9.75 10.635 0 1.573 8.898 12.29 15.344 18.482l2.082 2-1.942-2.5c-1.244-1.602-.602-1.262 1.787.946 2.051 1.896 3.754 4.146 3.784 5 .031.855 1.493 2.65 3.25 3.99l3.195 2.436-3-3.436-3-3.436 3.175 2.865c1.746 1.575 2.974 3.386 2.73 4.022-.244.637 1.702 3.173 4.324 5.635l4.769 4.478-3.999-4.5-3.999-4.5 4.171 3.875c2.293 2.132 3.968 4.403 3.72 5.048-.247.645.612 2.171 1.91 3.391l2.361 2.217 1.919-2.248c1.903-2.23 1.902-2.236-.081-.766-1.856 1.376-1.9 1.356-.617-.28.761-.97 1.906-1.645 2.544-1.5 1.359.308 30.906-26.238 30.1-27.043-.3-.3.433-1.587 1.628-2.859 2.136-2.274 2.141-2.353.297-4.575l-1.878-2.26 2.411 2.225 2.41 2.226-2.372 2.524c-1.304 1.389-1.913 2.525-1.352 2.525 1.242 0 4.342-3.303 4.296-4.579-.047-1.295-3.605-5.421-4.674-5.421-.488 0-2.666-1.912-4.84-4.25l-3.953-4.25 4.443 4c2.444 2.2.215-.715-4.954-6.478-5.17-5.763-10.082-11.275-10.916-12.25-1.968-2.298-3.746-2.318-1.945-.022 1.233 1.573 1.201 1.616-.319.427-.929-.728-1.479-1.872-1.222-2.543.66-1.72-11.443-13.634-13.85-13.634-1.11 0-5.558 3.426-10.109 7.786m10.479-6.536c.241.137 3.129 2.725 6.416 5.75l5.977 5.5-5.466-5.75c-3.006-3.162-5.894-5.75-6.417-5.75-.522 0-.752.113-.51.25m-9.702 8-1.905 2.25 2.25-1.905c2.114-1.79 2.705-2.595 1.905-2.595-.19 0-1.202 1.012-2.25 2.25m-31.533 5.5c-1.243 1.586-1.208 1.621.378.378 1.666-1.307 2.195-2.128 1.372-2.128-.207 0-.995.787-1.75 1.75m17.581 6.5-3.953 4.25 4.25-3.953c3.952-3.676 4.71-4.547 3.953-4.547-.163 0-2.076 1.912-4.25 4.25m47.61 4.327c1.89 2.242 3.639 3.915 3.887 3.717.247-.199-1.299-2.033-3.437-4.077l-3.887-3.717 3.437 4.077m-56.855 3.711c-4.576 4.663-5.159 6.747-2.458 8.791 1.489 1.127 1.563 1.115.5-.077-2.085-2.338-1.443-4.23 2.958-8.714 2.315-2.358 3.983-4.288 3.708-4.288-.275 0-2.393 1.93-4.708 4.288M347.5 233c2.709 2.75 5.15 5 5.425 5 .275 0-1.716-2.25-4.425-5-2.709-2.75-5.15-5-5.425-5-.275 0 1.716 2.25 4.425 5m-192.248 2.5c.011 2.2.216 2.982.455 1.738.239-1.244.23-3.044-.02-4s-.446.062-.435 2.262m250.153 7.75-1.905 2.25 2.25-1.905c2.114-1.79 2.705-2.595 1.905-2.595-.19 0-1.202 1.012-2.25 2.25m-7.459 7.5-3.446 3.75 3.75-3.446c2.063-1.896 3.75-3.583 3.75-3.75 0-.764-.846-.044-4.054 3.446M346.5 256c2.148 2.2 4.131 4 4.406 4 .275 0-1.258-1.8-3.406-4s-4.131-4-4.406-4c-.275 0 1.258 1.8 3.406 4m42.446 2.75-3.446 3.75 3.75-3.446c2.063-1.896 3.75-3.583 3.75-3.75 0-.764-.846-.044-4.054 3.446M354.5 265c2.148 2.2 4.131 4 4.406 4 .275 0-1.258-1.8-3.406-4s-4.131-4-4.406-4c-.275 0 1.258 1.8 3.406 4m-196.268 2c0 1.925.206 2.712.457 1.75.252-.962.252-2.538 0-3.5-.251-.962-.457-.175-.457 1.75M377 265.378c0 .207.788.995 1.75 1.75 1.586 1.243 1.621 1.208.378-.378-1.307-1.666-2.128-2.195-2.128-1.372m60.281 9.278c-31.12 27.872-29.61 24.972-19.145 36.762 7.295 8.218 11.505 12.047 9.269 8.427-.433-.699-.276-.883.397-.467.611.377.91 1.234.665 1.904-.244.67 2.581 4.143 6.28 7.718 3.698 3.575 5.156 4.7 3.239 2.5l-3.486-4 3.672 3.371c2.02 1.854 3.502 3.879 3.294 4.5-.208.621 3.314 4.968 7.828 9.659 4.513 4.692 6.856 6.942 5.206 5l-3-3.53 3.711 3.408c2.041 1.875 3.491 3.766 3.221 4.202-.602.975 8.593 10.993 9.547 10.403.377-.233 2.881 1.807 5.565 4.532 2.685 2.725 5.573 4.991 6.418 5.034 1.078.055 1.154.233.254.594-.706.284-1.943-.032-2.75-.701-.926-.769-1.466-.828-1.466-.162 0 3.602 5.956 2.131 9.996-2.468l2.497-2.842-3.497 2.998-3.496 2.998 3.446-3.748c3.358-3.652 4.803-4.769 3.554-2.748-1.697 2.747 1.882-.127 15.07-12.098 14.462-13.127 16.051-15.386 12.68-18.03-1.617-1.268-1.64-1.22-.298.628 1.242 1.712 1.244 1.814.011.712-.792-.709-1.445-2.059-1.451-3-.007-.942-.608-1.588-1.336-1.437-.729.151-1.08-.121-.781-.605.73-1.181-3.838-5.394-4.803-4.429-.417.417-.609.134-.425-.629.348-1.451-12.561-16.402-15.167-17.565-.825-.368.074 1.045 1.999 3.142l3.498 3.811-4.248-3.953c-4.113-3.826-5.315-5.324-3.249-4.047 2.718 1.68-.133-1.844-12.583-15.556-7.471-8.227-13.925-14.748-14.342-14.49-.417.257-2.292-1.182-4.167-3.199-1.874-2.018-2.62-3.07-1.658-2.339.962.731 1.75.879 1.75.329 0-1.097-2.95-3.825-3.904-3.611-.328.074-2.074-1.164-3.881-2.75-1.806-1.586-2.903-2.884-2.437-2.884.466 0 2.137 1.345 3.712 2.99 1.575 1.644 3.052 2.801 3.283 2.571.489-.49-5.932-6.488-6.992-6.532-.396-.016-5.571 4.316-11.5 9.627m1.219.033c-6.034 5.73-6.526 6.358-2 2.555 5.716-4.804 11.332-10.297 10.424-10.198-.233.026-4.024 3.465-8.424 7.643m21.961 3.268c2.178 2.407 2.677 2.567 1.93.62-.3-.782-1.273-1.702-2.162-2.043-1.328-.509-1.287-.255.232 1.423m-37.589 11.793c-1.243 1.586-1.208 1.621.378.378 1.666-1.307 2.195-2.128 1.372-2.128-.207 0-.995.788-1.75 1.75M469 288.378c0 .207.788.995 1.75 1.75 1.586 1.243 1.621 1.208.378-.378-1.307-1.666-2.128-2.195-2.128-1.372m-53.547 7.872-3.953 4.25 4.25-3.953c3.952-3.676 4.71-4.547 3.953-4.547-.163 0-2.076 1.913-4.25 4.25M476 295.5c1.866 1.925 3.617 3.5 3.892 3.5.275 0-1.026-1.575-2.892-3.5-1.866-1.925-3.617-3.5-3.892-3.5-.275 0 1.026 1.575 2.892 3.5m-65 6.13c0 .53 1.913 2.743 4.25 4.917l4.25 3.953-4-4.485c-2.2-2.466-4.113-4.679-4.25-4.916-.137-.238-.25.001-.25.531m73.5 3.37c2.148 2.2 4.131 4 4.406 4 .275 0-1.258-1.8-3.406-4s-4.131-4-4.406-4c-.275 0 1.258 1.8 3.406 4m-110.268 2c0 1.925.206 2.712.457 1.75.252-.962.252-2.538 0-3.5-.251-.962-.457-.175-.457 1.75M422 314.5c1.866 1.925 3.617 3.5 3.892 3.5.275 0-1.026-1.575-2.892-3.5-1.866-1.925-3.617-3.5-3.892-3.5-.275 0 1.026 1.575 2.892 3.5m77.5 7.5c.995 1.1 2.035 2 2.31 2 .275 0-.315-.9-1.31-2-.995-1.1-2.035-2-2.31-2-.275 0 .315.9 1.31 2m-334.248 16.5c.011 2.2.216 2.982.455 1.738.239-1.244.23-3.044-.02-4s-.446.062-.435 2.262m205.98-.5c0 1.925.206 2.712.457 1.75.252-.962.252-2.538 0-3.5-.251-.962-.457-.175-.457 1.75m75.268 3c2.148 2.2 4.131 4 4.406 4 .275 0-1.258-1.8-3.406-4s-4.131-4-4.406-4c-.275 0 1.258 1.8 3.406 4m61 9.61-9 8.574 9.25-8.232c8.206-7.303 9.913-8.998 9-8.935-.138.01-4.3 3.876-9.25 8.593m-13.554 12.14-3.446 3.75 3.75-3.446c2.063-1.896 3.75-3.583 3.75-3.75 0-.764-.846-.044-4.054 3.446M468 365.187c0 1.129 6.856 8.291 7.408 7.738.305-.305-1.236-2.305-3.426-4.443-2.19-2.138-3.982-3.621-3.982-3.295M168.232 370c0 1.925.206 2.712.457 1.75.252-.962.252-2.538 0-3.5-.251-.962-.457-.175-.457 1.75m199.02 8.5c.011 2.2.216 2.982.455 1.738.239-1.244.23-3.044-.02-4s-.446.062-.435 2.262M172.232 410c0 1.925.206 2.712.457 1.75.252-.962.252-2.538 0-3.5-.251-.962-.457-.175-.457 1.75m191.963.5c.02 1.65.244 2.204.498 1.231.254-.973.237-2.323-.037-3-.274-.677-.481.119-.461 1.769m-189 31c.02 1.65.244 2.204.498 1.231.254-.973.237-2.323-.037-3-.274-.677-.481.119-.461 1.769" fill-rule="evenodd"/></svg>